<svg viewBox="0 0 512 512" xmlns="http://www.w3.org/2000/svg">
  <!-- Background Circle -->
  <circle cx="256" cy="256" r="240" fill="#000000"/>
  
  <!-- Head Profile -->
  <g fill="none" stroke="#FFFFFF" stroke-width="12" stroke-linecap="round" stroke-linejoin="round">
    <!-- Face outline -->
    <path d="M 200 150 Q 180 180 180 220 Q 180 280 220 320 L 280 320 Q 320 280 320 220 Q 320 180 300 150"/>
    
    <!-- Spiky Hair -->
    <path d="M 200 140 Q 190 100 220 80 Q 240 70 260 75 Q 280 70 300 80 Q 330 100 320 140"/>
    <path d="M 220 80 L 210 50"/>
    <path d="M 260 75 L 260 40"/>
    <path d="M 300 80 L 310 50"/>
    
    <!-- Beard -->
    <path d="M 220 280 Q 250 310 280 280"/>
    <path d="M 230 290 Q 250 320 270 290"/>
    
    <!-- Ear -->
    <circle cx="160" cy="220" r="25"/>
    
    <!-- Neck -->
    <path d="M 240 320 L 240 360"/>
    <path d="M 280 320 L 280 360"/>
  </g>
  
  <!-- Decorative Circle Border -->
  <circle cx="256" cy="256" r="240" fill="none" stroke="#FFFFFF" stroke-width="8"/>
</svg>